PathFileType	4	(X/Y/Z)	./resultDataOpenSim/trcMotMarkerGrf/sub06/qtm-12-01.trc
DataRate	CameraRate	NumFrames	NumMarkers	Units	OrigDataRate	OrigDataStartFrame	OrigNumFrames
250.000000	250.000000	14	24	m	250.000000	62	490
Frame#	Time	L.Toe.Tip			R.Toe.Tip			L.Ankle.Lat			R.Ankle.Lat			L.Ankle.Med			R.Ankle.Med			L.Heel			R.Heel			L.Knee.Lat			R.Knee.Lat			L.Knee.Med			R.Knee.Med			L.Thigh.Upper			R.Thigh.Upper			L.ASIS			R.ASIS			V.Sacral			L.Acromium			R.Acromium			C7			L.Elbow			R.Elbow			L.Wrist.Lat			R.Wrist.Lat
		X1	Y1	Z1	X2	Y2	Z2	X3	Y3	Z3	X4	Y4	Z4	X5	Y5	Z5	X6	Y6	Z6	X7	Y7	Z7	X8	Y8	Z8	X9	Y9	Z9	X10	Y10	Z10	X11	Y11	Z11	X12	Y12	Z12	X13	Y13	Z13	X14	Y14	Z14	X15	Y15	Z15	X16	Y16	Z16	X17	Y17	Z17	X18	Y18	Z18	X19	Y19	Z19	X20	Y20	Z20	X21	Y21	Z21	X22	Y22	Z22	X23	Y23	Z23	X24	Y24	Z24

62	0.244	-1.2490775	0.09063768	-0.098015281	-0.76578971	0.035412398	0.087098302	-1.2610463	0.2203953	-0.11582817	-0.9030315	0.061593447	0.10573341	-1.2409728	0.221158	-0.034387361	-0.87955576	0.07922078	0.019670144	-1.3123055	0.27068847	-0.06353975	-0.95517118	0.038105721	0.043112864	-0.92430576	0.38907132	-0.14156078	-0.82851023	0.44130555	0.13776915	-0.926396	0.38323721	-0.017181202	-0.8609825	0.43170627	0.01386111	-0.9655762	0.78436598	-0.14694095	-0.94300615	0.80050691	0.1954342	-0.88746302	0.83389554	-0.1093539	-0.85904814	0.85064989	0.13295205	-1.0524922	0.92364877	0.03386379	-0.91587167	1.3314002	-0.15913126	-0.9120362	1.3070079	0.20243477	-0.99238552	1.3595564	0.022013398	-0.93540023	1.0116038	-0.23561404	-1.034401	1.0139395	0.25208142	-0.74112908	0.85814863	-0.20839464	-0.95587021	0.79435506	0.30727731
63	0.248	-1.2322735	0.090414581	-0.097685168	-0.76582886	0.035421418	0.087123732	-1.2464696	0.21973651	-0.11509847	-0.90305552	0.061623068	0.10576456	-1.2263794	0.22076872	-0.033677438	-0.87956288	0.079339006	0.019752085	-1.2983565	0.26916317	-0.062607754	-0.95519926	0.038177528	0.043162942	-0.91164772	0.3913979	-0.14130233	-0.82748454	0.44130253	0.13792083	-0.9138612	0.38558093	-0.016528197	-0.85956423	0.43206979	0.013855976	-0.95846924	0.78639324	-0.14578488	-0.93844446	0.80143548	0.19572412	-0.881068	0.83580007	-0.10904242	-0.85340652	0.85217376	0.13398491	-1.0468086	0.92514281	0.033990705	-0.9103822	1.3331561	-0.15899385	-0.90571575	1.3089626	0.20248438	-0.98645013	1.3611879	0.022247455	-0.93190223	1.0135664	-0.23513133	-1.0256252	1.0146811	0.25301192	-0.73878144	0.85825242	-0.20907835	-0.94334446	0.79618161	0.30723547
64	0.252	-1.2153832	0.089979705	-0.097175835	-0.76585292	0.035430557	0.087122894	-1.23177	0.21884451	-0.1143626	-0.90303564	0.061670869	0.10577159	-1.2116305	0.22015857	-0.032995399	-0.87953866	0.079477963	0.019824618	-1.2844013	0.26738613	-0.061908505	-0.9552275	0.038227464	0.043206662	-0.89900081	0.39383917	-0.14101883	-0.82631042	0.4413216	0.13801587	-0.90103231	0.38801951	-0.015926791	-0.8583012	0.43241108	0.013825758	-0.95139004	0.78844423	-0.14486907	-0.9330257	0.80249037	0.19622953	-0.87462159	0.83774054	-0.10867122	-0.84759072	0.85372085	0.13503199	-1.0417126	0.92661513	0.0342691	-0.90485497	1.3349079	-0.15885464	-0.89939705	1.3109117	0.20252111	-0.98051546	1.3628031	0.022481843	-0.92837259	1.015534	-0.23467327	-1.0166763	1.0154019	0.25385263	-0.73646954	0.85837668	-0.20981408	-0.93075567	0.79810002	0.30712526
65	0.256	-1.1982833	0.089347457	-0.096555559	-0.76587004	0.03543794	0.087105748	-1.2169554	0.21772879	-0.11361795	-0.90296091	0.061749865	0.10576393	-1.1967091	0.21932691	-0.032332101	-0.87950825	0.079624144	0.019873272	-1.2704465	0.26530947	-0.061461145	-0.95525709	0.038258946	0.043225915	-0.88631975	0.39640114	-0.14069121	-0.82500776	0.44138541	0.1380987	-0.88789479	0.39056717	-0.015393434	-0.857291	0.43271512	0.013760696	-0.94431944	0.79052491	-0.14449063	-0.92723834	0.80359467	0.1968313	-0.86811797	0.8397226	-0.10821336	-0.84172384	0.85527287	0.13607399	-1.037183	0.92802018	0.034588163	-0.89929658	1.3366454	-0.15870633	-0.89310115	1.3128484	0.20254345	-0.97457382	1.3644065	0.022721194	-0.9247107	1.0175011	-0.23418368	-1.0076669	1.0161413	0.25468206	-0.73420294	0.85851724	-0.21059364	-0.91811151	0.80010038	0.30695607
66	0.26	-1.1807866	0.088581341	-0.095992345	-0.76588654	0.0354442	0.087083371	-1.2020147	0.21640501	-0.11289166	-0.90284282	0.061855397	0.10574626	-1.181677	0.21828114	-0.031666141	-0.87949673	0.079765381	0.019887636	-1.2564882	0.26289669	-0.061100329	-0.95528947	0.038293928	0.043212782	-0.87364172	0.39906974	-0.14031355	-0.82370224	0.44147274	0.13816679	-0.87464665	0.3932423	-0.014902121	-0.85647051	0.4329843	0.013666519	-0.93720088	0.79265928	-0.14470369	-0.92165071	0.80464702	0.19738983	-0.8615966	0.84172453	-0.10768335	-0.83610021	0.85679791	0.13706516	-1.0327779	0.92934359	0.034771239	-0.89370921	1.3383584	-0.15855098	-0.88684159	1.314774	0.20254533	-0.96861782	1.3659962	0.022962002	-0.92086667	1.0194675	-0.23359615	-0.99874547	1.0169441	0.25557753	-0.7319883	0.85867744	-0.21141318	-0.90541792	0.80217611	0.30673556
67	0.264	-1.1628231	0.087731325	-0.095557661	-0.76590877	0.035452902	0.087065831	-1.1869431	0.21488743	-0.11219855	-0.90275302	0.061944998	0.10571568	-1.1665869	0.21704874	-0.03100031	-0.87951303	0.079900188	0.019873999	-1.2425099	0.26015314	-0.060558779	-0.95532828	0.038349949	0.043180923	-0.86107829	0.40181393	-0.13989136	-0.82254995	0.44154796	0.13819209	-0.86149907	0.39603701	-0.014425964	-0.85568635	0.43323118	0.013574838	-0.93000982	0.79483898	-0.14531825	-0.91650196	0.80560809	0.19785669	-0.85511602	0.843714	-0.10711873	-0.83087441	0.85828064	0.13798332	-1.0279237	0.93063641	0.034810113	-0.88809236	1.3400433	-0.15839649	-0.88060297	1.3166877	0.20252337	-0.96264978	1.3675607	0.023194339	-0.91689193	1.0214297	-0.23289269	-0.98996816	1.0178166	0.25656173	-0.7298183	0.8588554	-0.2122712	-0.89266999	0.80433144	0.30646629
68	0.268	-1.1444539	0.08681626	-0.095195658	-0.76594267	0.035468329	0.087060819	-1.1717447	0.21318027	-0.11152498	-0.90278463	0.061969155	0.10567253	-1.1513546	0.21566249	-0.030364721	-0.87955507	0.080032739	0.019849341	-1.2284664	0.25709871	-0.059767105	-0.95538106	0.038421816	0.043156065	-0.84868869	0.40460358	-0.13942328	-0.82160813	0.44159753	0.1381643	-0.84858948	0.39892229	-0.013943645	-0.85487343	0.43345957	0.013518582	-0.92279534	0.79697997	-0.14593932	-0.91168611	0.80650744	0.19826455	-0.84872006	0.84566686	-0.10656773	-0.82578287	0.85974999	0.13887817	-1.0223929	0.93194056	0.034816064	-0.88244967	1.3417007	-0.1582464	-0.87436318	1.3185816	0.20248261	-0.95668284	1.3690883	0.023408765	-0.9129662	1.0233917	-0.23216896	-0.98128303	1.0187253	0.25759701	-0.7276802	0.85903845	-0.21316068	-0.87986677	0.80657411	0.30614946
69	0.272	-1.1257409	0.0858583	-0.094834975	-0.76599036	0.035491718	0.087071574	-1.1564186	0.21127694	-0.11085803	-0.90294532	0.061937089	0.10563455	-1.1358749	0.21413238	-0.029764284	-0.87962098	0.0801662	0.019829993	-1.2143078	0.25373816	-0.058818771	-0.95545851	0.038491528	0.043166157	-0.83642058	0.40742644	-0.13890347	-0.82080131	0.44163719	0.13811233	-0.83595886	0.40187584	-0.013438141	-0.85410683	0.43365034	0.01350618	-0.91562636	0.79898982	-0.14623465	-0.90688188	0.80739946	0.1986765	-0.84240425	0.84757606	-0.10606063	-0.82045276	0.8612399	0.13981194	-1.0163391	0.93322857	0.034719069	-0.87679123	1.3433264	-0.15809536	-0.86812171	1.3204473	0.20243843	-0.95072966	1.3705773	0.023601351	-0.90927111	1.0253655	-0.23157679	-0.97257366	1.0196156	0.25860812	-0.72556875	0.85921453	-0.21406851	-0.8670379	0.80889933	0.30578864
70	0.276	-1.1066886	0.084888433	-0.094453028	-0.76604972	0.035517886	0.087094903	-1.1409642	0.20916924	-0.11019364	-0.90314043	0.061915631	0.10562945	-1.1201902	0.21243752	-0.029153236	-0.87970911	0.080304097	0.019827848	-1.2000043	0.25005747	-0.057758987	-0.95556697	0.038551253	0.043235286	-0.8241983	0.41028641	-0.13833697	-0.82002285	0.44168764	0.13807371	-0.82355427	0.40490548	-0.012889465	-0.85347997	0.43378321	0.013501961	-0.90852545	0.80086691	-0.14619595	-0.90179255	0.80831917	0.19911008	-0.83610378	0.84944852	-0.10557711	-0.81490508	0.86272378	0.14076763	-1.0099793	0.93445886	0.034258967	-0.87112648	1.3449089	-0.1579382	-0.86189863	1.3222811	0.20240565	-0.94479284	1.3720306	0.023773599	-0.90582076	1.0273521	-0.23117871	-0.9637509	1.020448	0.25953718	-0.72348787	0.85938672	-0.21498578	-0.85423114	0.81129414	0.30538844
71	0.28	-1.0873149	0.083909341	-0.094056521	-0.76612064	0.035534381	0.087122974	-1.1253808	0.20686021	-0.10952055	-0.90326411	0.061963008	0.10567241	-1.1044371	0.21054482	-0.028483082	-0.87981063	0.080452287	0.019848059	-1.1855612	0.24605033	-0.056655435	-0.95568508	0.038621579	0.043348616	-0.81200067	0.41318467	-0.13773182	-0.81924244	0.44174843	0.1380555	-0.81129084	0.40803828	-0.012277096	-0.8530338	0.43386825	0.013412751	-0.90148156	0.80268561	-0.14602923	-0.89643149	0.80926822	0.19948411	-0.82974195	0.85129569	-0.10506607	-0.8094352	0.86413864	0.14167938	-1.0034344	0.93563176	0.033371668	-0.86545339	1.3464366	-0.1577776	-0.85571308	1.3240806	0.20238501	-0.93886686	1.3734383	0.02393086	-0.90248151	1.0293311	-0.23089423	-0.95486684	1.0212374	0.26041054	-0.7214422	0.85956886	-0.21591273	-0.84146562	0.8137597	0.30495267
72	0.284	-1.0677274	0.082873027	-0.093649448	-0.76621089	0.035524936	0.087149174	-1.1096559	0.20436537	-0.10882886	-0.90324243	0.062099501	0.10575828	-1.0886497	0.2084422	-0.027762647	-0.87990749	0.080615084	0.019886382	-1.1709954	0.24174361	-0.055690305	-0.95574314	0.03874749	0.043418818	-0.79985324	0.41610701	-0.13708087	-0.81848145	0.44180371	0.13804483	-0.7991428	0.41128063	-0.011597816	-0.85283149	0.43393335	0.013151173	-0.89448623	0.80450348	-0.1458856	-0.89099443	0.8102385	0.19971982	-0.82328706	0.85312947	-0.10449296	-0.80409323	0.86548057	0.14252954	-0.99681269	0.93676845	0.032462167	-0.85976058	1.3479062	-0.15761765	-0.84956505	1.3258401	0.20236854	-0.93294499	1.3747794	0.024079522	-0.89911748	1.0312733	-0.23057299	-0.94609916	1.0220395	0.2613285	-0.71942688	0.85976465	-0.21685046	-0.82872804	0.8163095	0.30448237
73	0.288	-1.0480688	0.081723709	-0.093234463	-0.76632433	0.035482933	0.087171851	-1.0937578	0.20170249	-0.10813269	-0.9030254	0.062319628	0.10586749	-1.0726791	0.20617058	-0.027061699	-0.87998521	0.080787309	0.019931976	-1.1562657	0.23718991	-0.05493216	-0.95565534	0.038960249	0.043338749	-0.78779899	0.41903387	-0.13637068	-0.81775568	0.4418413	0.13803713	-0.78715768	0.41459705	-0.010869118	-0.85291539	0.43400568	0.012747917	-0.88752414	0.8063166	-0.14577476	-0.8854404	0.8112135	0.19988488	-0.81671023	0.85497114	-0.10384579	-0.79856709	0.86682002	0.14336126	-0.99024902	0.93787856	0.032071994	-0.85404492	1.3493191	-0.15745559	-0.84343617	1.3275519	0.20235107	-0.92702184	1.3760448	0.024221427	-0.89566911	1.0331609	-0.23008075	-0.93758438	1.0228972	0.26236775	-0.71742377	0.85995812	-0.2177937	-0.81600246	0.81895006	0.30397722
74	0.292	-1.0283772	0.080468234	-0.092829556	-0.76644051	0.035425994	0.087191437	-1.0776356	0.19888712	-0.10746438	-0.90263691	0.062593942	0.1059738	-1.0564204	0.20380015	-0.026445429	-0.88005736	0.080947942	0.019973924	-1.1412862	0.23245229	-0.054271466	-0.95539989	0.039245886	0.043093516	-0.7758784	0.42195714	-0.13560487	-0.81709619	0.44185248	0.13803467	-0.77537819	0.41794075	-0.010104234	-0.85318518	0.43411102	0.012313514	-0.88055102	0.80810265	-0.1456462	-0.87957562	0.81214457	0.2001103	-0.80996331	0.85684271	-0.10312485	-0.79264258	0.86818991	0.14420027	-0.98381477	0.938948	0.032321857	-0.84831759	1.350668	-0.15728643	-0.83730902	1.329211	0.20232742	-0.92109338	1.3772423	0.024352526	-0.89213739	1.0349933	-0.22933313	-0.92926228	1.0238017	0.26348744	-0.71541358	0.86012579	-0.2187355	-0.80328084	0.82168014	0.30344301
75	0.296	-1.0085691	0.079170348	-0.092465047	-0.76652606	0.03538269	0.087206509	-1.0612521	0.19592133	-0.10684306	-0.90222277	0.062869697	0.1060525	-1.0401308	0.20132139	-0.025863929	-0.88015713	0.08107244	0.020003105	-1.1260534	0.22757691	-0.053642136	-0.95505471	0.039562234	0.042794074	-0.76410618	0.42488291	-0.13480075	-0.81657011	0.44182475	0.1380276	-0.76379712	0.42129324	-0.0092977976	-0.85344166	0.43426319	0.011907892	-0.87351484	0.80987023	-0.14547127	-0.87354145	0.8129756	0.20038934	-0.80308881	0.85873294	-0.10235646	-0.78656353	0.86951857	0.14499904	-0.97749321	0.93995211	0.032915543	-0.84258703	1.3519356	-0.15711544	-0.83118114	1.330815	0.20229079	-0.91515876	1.3783764	0.02447181	-0.88855464	1.0367761	-0.22837623	-0.92089087	1.024691	0.26453405	-0.71340148	0.86025324	-0.21967705	-0.79057323	0.82449787	0.30288928
